<svg xmlns="http://www.w3.org/2000/svg" viewBox="0 0 24 24" id="KateSpade">
  <path fill="#000000" d="M23.977 12.506s.367-3.494-6.738-8.307c0 0-3.461-2.268-5.053-4.076C12.125.06 12.094 0 12.003 0c-.092 0-.122.06-.184.123-1.593 1.808-5.053 4.076-5.053 4.076C-.339 9.011.028 12.506.028 12.506c-.306 3.004 1.96 5.916 4.992 5.916 2.42 0 4.165-1.379 4.807-1.992l.276-.275c.122-.154.275-.308.306-.368l.092.123c.061.123.122.245.122.368.306 2.513-2.817 5.67-3.736 6.529 0 0-.245.276-.245.645V24h10.689v-.552c0-.368-.245-.645-.245-.645-.919-.857-4.043-4.015-3.737-6.528.031-.123.062-.276.122-.368l.092-.123c.03.092.184.245.306.368l.276.276c.642.613 2.389 1.992 4.807 1.992 3.064-.029 5.301-2.91 5.025-5.914z" class="color37474f svgShape"></path>
  <path fill="#050000" d="M12 0c-.09.001-.12.061-.181.123-1.593 1.808-5.053 4.076-5.053 4.076C-.339 9.011.028 12.506.028 12.506c-.306 3.004 1.96 5.916 4.992 5.916 2.42 0 4.165-1.379 4.807-1.992l.276-.275c.122-.154.275-.308.306-.368l.092.123c.061.123.122.245.122.368.306 2.513-2.817 5.67-3.736 6.529 0 0-.245.276-.245.645V24H12V0z" class="color303e45 svgShape"></path>
</svg>
